<?xml version="1.0" standalone="no"?>
<!DOCTYPE svg PUBLIC "-//W3C//DTD SVG 20010904//EN"
 "http://www.w3.org/TR/2001/REC-SVG-20010904/DTD/svg10.dtd">
<svg version="1.0" xmlns="http://www.w3.org/2000/svg"
 width="800.000000pt" height="800.000000pt" viewBox="0 0 800.000000 800.000000"
 preserveAspectRatio="xMidYMid meet">
<metadata>
Created by potrace 1.11, written by Peter Selinger 2001-2013
</metadata>
<g transform="translate(0.000000,800.000000) scale(0.100000,-0.100000)"
fill="#000000" stroke="none">
<path d="M170 6133 c0 -6 -16 -8 -36 -6 -23 2 -33 0 -29 -7 3 -5 1 -10 -4 -10
-6 0 -11 -5 -11 -11 0 -5 6 -7 13 -3 8 5 8 2 -2 -9 -9 -11 -10 -17 -2 -17 6 0
11 -5 11 -11 0 -5 -4 -8 -8 -5 -11 6 -9 -25 3 -43 5 -10 4 -12 -3 -7 -7 4 -12
2 -12 -3 0 -6 5 -11 11 -11 8 0 7 -5 -2 -16 -10 -13 -10 -17 0 -24 10 -5 10
-9 2 -15 -9 -5 -9 -10 -1 -20 8 -10 8 -19 1 -34 -14 -26 -14 -34 2 -25 8 5 8
2 -2 -9 -9 -11 -10 -17 -2 -17 6 0 11 -5 11 -11 0 -5 -4 -8 -8 -5 -11 6 -9
-25 2 -43 5 -8 3 -17 -5 -22 -12 -8 -12 -10 0 -18 9 -6 10 -11 2 -15 -6 -4
-11 -13 -11 -19 0 -7 4 -6 10 3 5 8 10 10 10 4 0 -5 -5 -15 -12 -22 -9 -9 -9
-12 1 -12 10 0 11 -3 2 -13 -8 -10 -7 -17 1 -25 8 -8 8 -15 -2 -27 -8 -10 -9
-15 -1 -15 6 0 11 -5 11 -11 0 -5 -4 -8 -8 -5 -11 6 -9 -25 3 -43 5 -10 4 -12
-3 -7 -7 4 -12 2 -12 -3 0 -6 5 -11 11 -11 8 0 7 -5 -2 -16 -10 -13 -10 -17 0
-24 10 -5 10 -9 2 -15 -9 -5 -9 -10 -1 -20 8 -10 8 -19 1 -34 -14 -26 -14 -34
1 -25 9 5 9 2 -1 -9 -9 -11 -10 -17 -2 -17 6 0 11 -5 11 -11 0 -5 -4 -8 -8 -5
-11 6 -9 -25 2 -43 5 -8 3 -17 -5 -22 -12 -8 -12 -10 0 -18 9 -6 10 -11 2 -15
-6 -4 -11 -13 -11 -19 0 -7 4 -6 10 3 5 8 10 10 10 5 0 -6 -5 -16 -12 -23 -9
-9 -9 -12 1 -12 10 0 11 -3 2 -13 -8 -10 -7 -17 1 -25 8 -8 8 -15 -2 -27 -8
-10 -9 -15 -1 -15 6 0 11 -5 11 -11 0 -5 -4 -8 -8 -5 -11 6 -9 -25 3 -43 5
-10 4 -12 -3 -7 -7 4 -12 2 -12 -3 0 -6 5 -11 11 -11 8 0 7 -5 -2 -16 -10 -13
-10 -17 0 -24 10 -5 10 -9 2 -15 -9 -5 -9 -10 -1 -20 8 -10 8 -19 1 -34 -14
-26 -14 -34 2 -25 8 5 8 2 -2 -9 -9 -11 -10 -17 -2 -17 6 0 11 -5 11 -11 0 -5
-4 -8 -8 -5 -11 6 -9 -25 2 -43 5 -8 3 -17 -5 -22 -12 -8 -12 -10 0 -18 9 -6
10 -11 2 -15 -6 -4 -11 -13 -11 -19 0 -7 4 -6 10 3 5 8 10 10 10 5 0 -6 -5
-16 -12 -23 -9 -9 -9 -12 2 -12 11 0 11 -3 2 -12 -8 -8 -9 -15 -1 -25 9 -9 8
-17 -1 -28 -9 -10 -9 -15 -1 -15 6 0 11 -5 11 -11 0 -5 -4 -8 -8 -5 -11 6 -9
-25 3 -43 5 -10 4 -12 -3 -7 -7 4 -12 2 -12 -3 0 -6 5 -11 11 -11 8 0 7 -5 -2
-16 -10 -13 -10 -17 0 -24 10 -5 10 -9 2 -15 -9 -5 -9 -10 -1 -20 8 -10 8 -19
1 -34 -14 -26 -14 -34 1 -25 9 5 9 2 -1 -9 -9 -11 -10 -17 -2 -17 6 0 11 -5
11 -11 0 -5 -4 -8 -8 -5 -11 6 -9 -25 2 -43 5 -8 3 -17 -5 -22 -12 -8 -12 -10
0 -18 9 -6 10 -11 2 -15 -6 -4 -11 -13 -11 -19 0 -7 4 -6 10 3 5 8 10 10 10 4
0 -5 -5 -15 -12 -22 -9 -9 -9 -12 1 -12 10 0 11 -3 2 -13 -8 -10 -7 -17 1 -25
8 -8 8 -15 -2 -27 -8 -10 -9 -15 -1 -15 6 0 11 -5 11 -11 0 -5 -4 -8 -8 -5
-11 6 -9 -25 3 -43 5 -10 4 -12 -3 -7 -7 4 -12 2 -12 -3 0 -6 5 -11 11 -11 8
0 7 -5 -2 -16 -10 -13 -10 -17 0 -24 10 -5 10 -9 2 -15 -9 -5 -9 -10 -1 -20 8
-10 8 -19 1 -34 -14 -26 -14 -34 1 -25 9 5 9 2 -1 -9 -9 -11 -10 -17 -2 -17 6
0 11 -5 11 -11 0 -5 -4 -8 -8 -5 -11 6 -9 -25 2 -43 5 -8 3 -17 -5 -22 -12 -8
-12 -10 0 -18 9 -6 10 -11 2 -15 -6 -4 -11 -13 -11 -19 0 -7 4 -6 10 3 5 8 10
10 10 4 0 -5 -5 -15 -12 -22 -9 -9 -9 -12 1 -12 10 0 11 -3 2 -13 -8 -10 -7
-17 1 -25 8 -8 8 -15 -2 -27 -8 -10 -9 -15 -1 -15 6 0 11 -5 11 -11 0 -5 -4
-8 -8 -5 -11 6 -9 -25 3 -43 5 -10 4 -12 -3 -7 -7 4 -12 2 -12 -3 0 -6 5 -11
11 -11 8 0 7 -5 -2 -16 -10 -13 -10 -17 0 -24 10 -5 10 -9 2 -15 -9 -5 -9 -10
-1 -20 8 -10 8 -19 1 -34 -14 -26 -14 -34 1 -25 9 5 9 2 -1 -9 -9 -11 -10 -17
-2 -17 6 0 11 -5 11 -11 0 -5 -4 -8 -8 -5 -11 6 -9 -25 2 -43 5 -8 3 -17 -5
-22 -12 -8 -12 -10 0 -18 9 -6 10 -11 2 -15 -6 -4 -11 -13 -11 -19 0 -7 4 -6
10 3 5 8 10 10 10 4 0 -5 -5 -15 -12 -22 -9 -9 -9 -12 1 -12 10 0 11 -3 2 -13
-8 -10 -7 -17 1 -25 8 -8 8 -15 -2 -27 -8 -10 -9 -15 -1 -15 6 0 11 -5 11 -11
0 -5 -4 -8 -8 -5 -11 6 -9 -25 3 -43 5 -10 4 -12 -3 -7 -7 4 -12 2 -12 -3 0
-6 5 -11 11 -11 8 0 7 -5 -2 -16 -10 -13 -10 -17 0 -24 10 -5 10 -9 2 -15 -9
-5 -9 -10 -1 -20 8 -10 8 -19 1 -34 -14 -26 -14 -34 1 -25 9 5 9 2 -1 -9 -9
-11 -10 -17 -2 -17 6 0 11 -5 11 -11 0 -5 -4 -8 -8 -5 -11 6 -9 -25 2 -43 5
-8 3 -17 -5 -22 -12 -8 -12 -10 0 -18 9 -6 10 -11 2 -15 -6 -4 -11 -13 -11
-19 0 -7 4 -6 10 3 5 8 10 10 10 5 0 -6 -5 -16 -12 -23 -9 -9 -9 -12 1 -12 10
0 11 -3 2 -13 -8 -10 -7 -17 1 -25 8 -8 8 -15 -2 -27 -8 -10 -9 -15 -1 -15 6
0 11 -5 11 -11 0 -5 -4 -8 -8 -5 -11 6 -9 -25 3 -43 5 -10 4 -12 -3 -7 -7 4
-12 2 -12 -3 0 -6 5 -11 11 -11 8 0 7 -5 -2 -16 -10 -13 -10 -17 0 -24 10 -5
10 -9 2 -15 -9 -5 -9 -10 -1 -20 8 -10 8 -19 1 -34 -14 -26 -14 -34 1 -25 9 5
9 2 -1 -9 -9 -11 -10 -17 -2 -17 6 0 11 -5 11 -11 0 -5 -4 -8 -8 -5 -11 6 -9
-25 2 -43 5 -8 3 -17 -5 -22 -12 -8 -12 -10 0 -18 9 -6 10 -11 2 -15 -6 -4
-11 -13 -11 -19 0 -7 4 -6 10 3 5 8 10 10 10 5 0 -6 -5 -16 -12 -23 -9 -9 -9
-12 1 -12 10 0 11 -3 2 -13 -8 -10 -7 -17 1 -25 8 -8 8 -15 -2 -27 -8 -10 -9
-15 -1 -15 6 0 11 -5 11 -11 0 -5 -4 -8 -8 -5 -11 6 -9 -25 3 -43 5 -10 4 -12
-3 -7 -7 4 -12 2 -12 -3 0 -6 5 -11 11 -11 8 0 7 -5 -2 -16 -10 -13 -10 -17 0
-24 10 -5 10 -9 2 -15 -9 -5 -9 -10 -1 -20 8 -10 8 -19 1 -34 -14 -26 -14 -34
1 -25 9 5 9 2 -1 -9 -9 -11 -10 -17 -2 -17 6 0 11 -5 11 -11 0 -5 -4 -8 -8 -5
-7 4 -8 -33 -2 -41 7 -8 5 -30 -3 -41 -6 -7 -7 -15 -5 -18 8 -7 408 -8 415 0
8 8 8 170 -1 184 -4 7 -2 12 6 12 9 0 9 3 -2 10 -8 5 -10 10 -5 10 6 0 10 29
10 67 0 38 -4 71 -10 75 -7 5 -6 8 0 8 11 0 13 46 2 56 -4 4 1 13 11 21 9 8
11 11 3 7 -11 -5 -13 -3 -8 9 3 10 2 17 -3 17 -5 0 -6 12 -2 28 9 35 8 64 -1
80 -5 6 -5 12 0 12 9 0 9 137 0 146 -4 4 1 13 11 21 9 8 11 11 3 7 -11 -5 -13
-3 -8 9 3 10 2 17 -3 17 -5 0 -6 12 -2 28 9 35 8 64 -1 80 -5 6 -5 12 0 12 10
0 9 212 -1 228 -4 7 -1 12 6 12 9 0 9 3 -2 10 -8 5 -10 10 -5 10 6 0 10 29 10
67 0 38 -4 71 -10 75 -7 5 -7 8 0 8 12 0 12 51 0 70 -5 8 -4 11 2 7 14 -9 12
55 -2 65 -7 5 -7 8 0 8 11 0 12 130 1 148 -4 7 -2 12 6 12 9 0 9 3 -2 10 -8 5
-10 10 -5 10 6 0 10 29 10 67 0 38 -4 71 -10 75 -7 5 -7 8 0 8 12 0 12 51 0
70 -5 8 -4 11 2 7 14 -9 12 55 -2 65 -7 5 -7 8 0 8 11 0 12 130 1 148 -4 7 -2
12 6 12 9 0 9 3 -2 10 -8 5 -10 10 -5 10 6 0 10 29 10 67 0 38 -4 71 -10 75
-7 5 -6 8 0 8 11 0 13 46 2 56 -4 4 1 13 11 21 9 8 11 11 3 7 -11 -5 -13 -3
-8 9 3 10 2 17 -3 17 -5 0 -6 12 -2 28 9 35 8 64 -1 80 -5 6 -5 12 0 12 9 0 9
137 0 146 -4 4 1 13 11 21 9 8 11 11 3 7 -11 -5 -13 -3 -8 9 3 10 2 17 -3 17
-5 0 -6 12 -2 28 9 35 8 64 -1 80 -5 6 -5 12 0 12 10 0 9 212 -1 228 -4 7 -1
12 6 12 9 0 9 3 -2 10 -8 5 -10 10 -5 10 6 0 10 29 10 67 0 38 -4 71 -10 75
-7 5 -7 8 0 8 12 0 12 51 0 70 -5 8 -4 11 2 7 5 -3 9 8 9 28 -1 19 -5 35 -11
35 -5 0 -3 5 5 10 13 9 13 11 0 20 -8 5 -10 10 -5 10 6 0 10 11 10 25 0 14 -2
25 -5 25 -4 0 -4 16 -2 35 3 22 8 33 16 28 6 -3 6 -1 -1 8 -16 16 -18 123 -2
114 6 -4 8 -13 5 -21 -3 -7 0 -16 6 -20 7 -5 8 -2 3 6 -5 9 -4 11 4 6 6 -4 9
-11 6 -16 -3 -5 0 -21 7 -37 6 -15 11 -31 10 -35 -1 -5 3 -8 9 -8 6 0 9 -7 5
-15 -3 -8 -1 -15 3 -15 5 0 12 -7 15 -16 4 -10 2 -13 -7 -8 -6 4 -4 -2 6 -13
9 -11 17 -27 17 -37 0 -11 5 -15 13 -10 9 5 9 4 0 -6 -9 -10 -8 -16 3 -27 8
-8 12 -19 9 -24 -4 -5 -1 -9 5 -9 6 0 10 -8 8 -17 -2 -10 2 -17 8 -16 6 1 10
-9 8 -22 -1 -14 2 -25 8 -25 6 0 8 -6 5 -14 -3 -8 3 -23 14 -35 11 -12 17 -21
13 -21 -3 0 0 -8 7 -17 9 -11 10 -14 2 -9 -9 5 -11 2 -7 -8 3 -9 10 -16 15
-16 5 0 9 -9 9 -20 0 -11 4 -20 10 -20 5 0 7 -6 4 -14 -3 -8 0 -17 5 -21 6 -3
9 -11 6 -16 -4 -5 -1 -9 4 -9 6 0 10 -3 9 -7 -1 -5 3 -18 10 -31 7 -12 11 -26
8 -31 -3 -5 1 -14 9 -21 8 -7 15 -21 15 -32 0 -10 4 -16 10 -13 5 3 7 0 4 -8
-3 -8 6 -40 20 -71 14 -31 27 -65 28 -74 2 -9 9 -23 16 -30 7 -8 10 -17 7 -22
-3 -5 -1 -11 5 -15 6 -4 8 -11 5 -16 -4 -5 -1 -9 4 -9 6 0 10 -3 9 -7 -1 -5 4
-21 11 -38 7 -16 14 -34 15 -40 6 -30 18 -55 26 -55 5 0 7 -9 5 -20 -2 -11 0
-20 4 -20 8 0 37 -80 33 -92 -1 -5 3 -8 9 -8 5 0 8 -4 4 -9 -3 -5 -1 -12 5
-16 6 -4 8 -11 5 -16 -4 -5 -1 -9 4 -9 6 0 11 -6 11 -14 0 -8 6 -17 13 -19 9
-4 9 -6 -1 -6 -10 -1 -9 -8 3 -31 9 -17 13 -35 10 -40 -3 -5 0 -7 8 -4 10 3
14 -2 13 -18 -1 -13 4 -29 11 -36 7 -8 11 -18 8 -23 -4 -5 -1 -9 4 -9 6 0 11
-9 11 -19 0 -11 5 -23 11 -26 5 -4 9 -14 7 -23 -2 -10 3 -23 12 -30 13 -11 13
-12 0 -6 -10 5 -9 0 4 -14 11 -12 16 -22 12 -22 -3 0 1 -11 10 -25 9 -14 13
-25 10 -25 -4 0 1 -11 10 -25 8 -13 13 -29 9 -35 -3 -5 -2 -10 2 -10 9 0 39
-69 35 -82 -1 -5 3 -8 9 -8 5 0 7 -4 4 -10 -3 -5 -1 -10 4 -10 6 0 11 -5 11
-11 0 -5 -6 -7 -12 -3 -7 4 -5 -2 5 -13 9 -11 17 -25 17 -31 0 -7 5 -12 11
-12 8 0 8 -5 -1 -15 -10 -12 -9 -16 5 -21 10 -4 15 -14 12 -25 -3 -11 -2 -17
2 -14 5 2 14 -15 21 -38 8 -23 17 -46 22 -51 4 -6 8 -18 8 -28 0 -10 5 -18 11
-18 5 0 7 -5 4 -10 -3 -5 -1 -10 4 -10 6 0 11 -5 11 -11 0 -5 -4 -7 -10 -4
-15 10 -12 -2 6 -20 10 -9 17 -29 18 -45 1 -16 6 -28 11 -27 6 1 9 -4 7 -12
-2 -8 2 -17 7 -21 6 -3 12 -18 13 -32 1 -15 5 -25 9 -22 9 5 21 -44 14 -57 -4
-5 -1 -8 7 -7 7 2 13 -4 13 -12 1 -8 6 -25 13 -36 6 -12 8 -24 5 -28 -3 -3 -2
-6 4 -6 6 0 14 -7 17 -16 4 -10 2 -13 -7 -8 -8 5 -7 2 2 -9 7 -9 10 -17 5 -17
-5 0 -1 -5 8 -11 10 -5 15 -16 12 -24 -4 -8 -1 -15 6 -15 6 0 8 -4 5 -10 -3
-5 -2 -10 4 -10 5 0 8 -9 6 -20 -2 -11 0 -18 6 -15 5 4 9 -1 9 -10 0 -10 5
-13 13 -9 9 6 9 5 0 -7 -10 -12 -9 -20 3 -38 9 -12 14 -25 10 -28 -3 -3 2 -12
10 -20 8 -9 13 -22 10 -29 -3 -8 -2 -14 3 -14 8 0 38 -80 33 -92 -1 -5 2 -8 7
-8 10 0 27 -39 23 -54 -2 -4 3 -14 9 -22 6 -8 8 -14 3 -14 -5 0 -1 -5 8 -11
10 -5 15 -16 12 -24 -4 -8 -1 -15 6 -15 7 0 10 -7 6 -15 -3 -8 -1 -15 5 -15 6
0 8 -4 4 -9 -3 -5 1 -15 8 -23 8 -7 12 -19 9 -26 -2 -6 0 -12 6 -12 5 0 9 -6
9 -14 0 -8 7 -30 17 -50 9 -20 14 -41 10 -48 -4 -7 -3 -8 4 -4 11 6 15 -5 11
-30 0 -4 4 -10 9 -13 6 -3 12 -15 14 -26 1 -11 8 -26 15 -33 7 -7 10 -19 7
-27 -4 -8 1 -17 9 -21 9 -3 13 -12 10 -21 -3 -8 -1 -18 5 -22 5 -3 12 -15 14
-26 1 -11 9 -26 16 -33 7 -8 10 -18 7 -23 -3 -4 1 -19 10 -32 8 -13 12 -27 8
-30 -3 -4 -1 -7 5 -7 7 0 12 -8 12 -17 0 -17 15 -18 183 -16 100 1 190 2 200
2 10 1 17 9 17 20 0 11 4 21 9 23 6 2 12 16 15 31 3 16 9 34 15 40 5 7 10 14
10 17 1 3 5 16 8 30 4 14 5 27 4 29 -2 2 2 7 8 10 6 4 12 18 15 31 2 14 8 24
14 23 6 -2 9 6 7 17 -2 11 1 22 6 25 5 4 7 11 4 16 -4 5 -1 9 5 9 7 0 9 8 5
21 -5 15 -4 19 4 15 6 -4 12 -2 12 3 2 12 5 26 9 39 1 4 2 10 1 15 0 4 4 7 10
7 5 0 8 4 4 9 -3 5 -1 12 5 16 6 4 8 11 5 16 -4 5 -1 9 5 9 6 0 8 5 4 11 -3 6
-2 14 4 18 7 4 13 16 15 28 1 12 8 28 15 35 6 8 9 18 5 21 -3 4 -1 13 6 21 6
8 14 25 16 37 3 13 9 25 14 27 6 2 7 10 4 18 -3 8 0 14 6 14 6 0 10 3 10 8 -1
7 0 11 6 30 2 4 6 17 10 30 4 12 12 22 19 22 6 0 4 5 -4 10 -10 6 -11 10 -2
10 6 0 12 9 12 19 0 10 7 22 16 25 8 3 12 11 9 16 -4 6 -1 18 7 27 7 10 8 14
1 10 -8 -5 -8 -1 0 17 7 13 14 23 17 21 3 -2 6 4 7 13 2 29 8 47 16 53 5 4 10
18 10 32 1 14 4 24 7 22 3 -2 10 8 17 21 8 18 8 22 0 17 -7 -3 -3 3 7 15 11
12 16 22 12 22 -4 0 -1 10 6 23 6 12 13 27 14 32 1 6 8 24 15 40 7 17 13 33
14 38 2 4 4 9 5 12 1 3 3 8 5 13 1 4 8 21 15 37 7 17 14 33 15 38 2 4 4 9 5
12 1 3 3 9 4 14 0 5 4 13 9 17 4 4 7 16 7 26 0 11 4 16 10 13 6 -3 7 1 4 9 -3
9 -1 16 4 16 6 0 9 9 7 19 -2 11 3 22 11 25 7 3 11 12 8 21 -4 9 1 17 10 21
12 5 14 10 6 19 -8 9 -6 14 6 19 9 4 14 9 10 13 -3 3 1 17 10 31 11 17 12 22
3 17 -8 -5 -5 1 5 13 11 12 16 22 11 22 -4 0 -2 6 4 13 6 8 8 17 4 20 -3 4 -1
7 5 7 7 0 11 3 10 8 -1 4 6 25 15 46 10 22 15 41 12 44 -2 3 3 11 13 19 10 9
11 11 2 7 -13 -7 -13 -5 -2 9 8 9 10 22 6 28 -4 8 -3 9 4 5 7 -4 14 4 18 21 4
15 14 44 22 63 9 19 15 38 14 43 -1 4 3 7 10 7 6 0 8 3 5 7 -4 3 -2 12 4 20 6
7 8 13 4 13 -4 0 -2 7 5 15 7 8 9 15 5 15 -4 0 -2 7 5 15 7 8 9 15 4 15 -5 0
-3 4 4 8 7 5 15 22 18 38 3 16 9 31 15 32 5 2 9 14 9 27 0 13 4 25 10 27 5 2
11 15 12 31 1 15 5 27 8 27 9 0 32 59 26 69 -4 5 -1 11 4 13 6 2 12 10 13 18
2 8 7 22 12 30 5 8 11 24 12 35 2 10 8 22 15 26 6 4 7 12 4 18 -4 6 -2 11 4
11 6 0 9 4 5 9 -3 5 -1 12 5 16 6 4 8 10 5 15 -3 5 2 15 11 24 8 9 12 20 9 26
-3 5 0 10 7 10 9 0 9 3 -2 10 -12 8 -10 10 10 10 18 0 21 3 11 9 -11 7 -11 12
2 32 8 13 13 32 12 41 -2 10 2 16 8 15 7 -1 11 6 9 16 -2 9 2 17 8 17 6 0 9 4
5 9 -3 5 -1 12 5 16 6 4 8 11 4 16 -3 6 2 17 12 25 11 9 14 13 7 10 -6 -4 -3
10 7 31 10 21 16 41 13 45 -2 5 1 8 7 8 6 0 8 5 5 10 -3 6 -1 10 4 10 6 0 11
8 11 18 0 10 3 22 7 26 4 3 8 12 9 19 4 20 29 82 35 87 7 6 23 62 21 73 -1 4
3 7 9 7 5 0 8 4 4 9 -3 5 -1 12 5 16 5 3 10 15 10 26 0 10 4 19 8 19 4 0 8 10
9 22 1 11 6 24 10 27 4 3 9 15 11 25 2 11 11 30 19 43 8 12 12 23 8 23 -4 0
-2 7 5 15 6 8 9 18 6 24 -3 5 1 12 10 15 8 3 14 11 12 18 -1 7 3 23 10 35 7
12 9 29 6 38 -4 9 -3 15 2 14 21 -4 26 2 14 17 -11 12 -11 15 1 12 8 -2 13 3
12 10 -2 6 1 12 6 12 5 0 7 10 4 23 -5 17 -3 20 7 10 12 -11 18 -149 6 -160
-3 -4 -1 -12 5 -20 7 -8 7 -13 2 -13 -7 0 -7 -15 -3 -40 4 -23 3 -43 -2 -46
-5 -3 -4 -12 3 -20 6 -8 7 -14 2 -14 -7 0 -7 -15 -3 -40 4 -23 3 -43 -2 -46
-5 -3 -4 -12 3 -20 6 -8 7 -14 2 -14 -7 0 -7 -15 -3 -40 4 -23 3 -43 -2 -46
-5 -3 -4 -12 3 -20 6 -8 7 -14 2 -14 -7 0 -7 -15 -3 -40 4 -23 3 -43 -2 -46
-5 -3 -4 -12 3 -20 6 -8 7 -14 2 -14 -7 0 -7 -15 -3 -40 4 -23 3 -43 -2 -46
-5 -3 -4 -12 3 -20 6 -8 7 -14 2 -14 -7 0 -7 -15 -3 -40 4 -23 3 -43 -2 -46
-5 -3 -4 -12 3 -20 6 -8 7 -14 2 -14 -7 0 -7 -15 -3 -40 4 -23 3 -43 -2 -46
-5 -3 -4 -12 3 -20 6 -8 7 -14 2 -14 -7 0 -7 -15 -3 -40 4 -23 3 -43 -2 -46
-5 -3 -4 -12 3 -20 6 -8 7 -14 2 -14 -7 0 -7 -15 -3 -40 4 -23 3 -43 -2 -46
-5 -3 -4 -12 3 -20 6 -8 7 -14 2 -14 -7 0 -7 -15 -3 -40 4 -23 3 -43 -2 -46
-5 -3 -4 -12 3 -20 6 -8 7 -14 2 -14 -7 0 -7 -15 -3 -40 4 -23 3 -43 -2 -46
-5 -3 -4 -12 3 -20 6 -8 7 -14 2 -14 -7 0 -7 -15 -3 -40 4 -23 3 -43 -2 -46
-5 -3 -4 -12 3 -20 6 -8 7 -14 2 -14 -7 0 -7 -15 -3 -40 4 -23 3 -43 -2 -46
-5 -3 -4 -12 3 -20 6 -8 7 -14 2 -14 -7 0 -7 -15 -3 -40 4 -23 3 -43 -2 -46
-5 -3 -4 -12 3 -20 6 -8 7 -14 2 -14 -7 0 -7 -15 -3 -40 4 -23 3 -43 -2 -46
-5 -3 -4 -12 3 -20 6 -8 7 -14 2 -14 -7 0 -7 -15 -3 -40 4 -23 3 -43 -2 -46
-5 -3 -4 -12 3 -20 6 -8 7 -14 2 -14 -7 0 -7 -15 -3 -40 4 -23 3 -43 -2 -46
-5 -3 -4 -12 3 -20 6 -8 7 -14 2 -14 -7 0 -7 -15 -3 -40 4 -23 3 -43 -2 -46
-5 -3 -4 -12 3 -20 6 -8 7 -14 2 -14 -7 0 -7 -15 -3 -40 4 -23 3 -43 -2 -46
-5 -3 -4 -12 3 -20 6 -8 7 -14 2 -14 -7 0 -7 -15 -3 -40 4 -23 3 -43 -2 -46
-5 -3 -4 -12 3 -20 6 -8 7 -14 2 -14 -7 0 -7 -15 -3 -40 4 -23 3 -43 -2 -46
-5 -3 -4 -12 3 -20 6 -8 7 -14 2 -14 -7 0 -7 -15 -3 -40 4 -23 3 -43 -2 -46
-5 -3 -4 -12 3 -20 6 -8 7 -14 2 -14 -7 0 -7 -15 -3 -40 4 -23 3 -43 -2 -46
-5 -3 -4 -12 3 -20 6 -8 7 -14 2 -14 -7 0 -7 -15 -3 -40 4 -23 3 -43 -2 -46
-5 -3 -4 -12 3 -20 6 -8 7 -14 2 -14 -7 0 -7 -15 -3 -40 4 -23 3 -43 -2 -46
-5 -3 -4 -12 3 -20 6 -8 7 -14 2 -14 -7 0 -7 -15 -3 -40 4 -23 3 -43 -2 -46
-5 -3 -4 -12 3 -20 6 -8 7 -14 2 -14 -7 0 -7 -15 -3 -40 4 -23 3 -43 -2 -46
-5 -3 -4 -12 3 -20 6 -8 7 -14 2 -14 -7 0 -7 -15 -3 -40 4 -23 3 -43 -2 -46
-5 -3 -4 -12 3 -20 7 -8 7 -14 1 -14 -6 0 -7 -13 -2 -34 4 -18 3 -40 -1 -49
-6 -10 -5 -18 1 -22 13 -8 400 -8 408 0 11 11 9 144 -3 137 -7 -4 -7 -1 0 9 7
8 10 72 9 161 -1 81 2 145 7 142 5 -3 6 2 3 10 -3 9 -10 13 -15 10 -5 -3 -6 5
-1 18 4 13 7 58 6 101 -2 56 1 75 9 70 9 -5 9 -3 1 8 -13 16 -15 111 -3 103 5
-3 6 2 3 10 -3 9 -10 13 -15 10 -5 -3 -6 5 -1 18 4 13 7 58 6 101 -1 52 1 75
8 70 7 -4 8 -1 2 8 -14 21 -14 379 0 379 8 0 8 2 0 8 -12 8 -16 204 -3 196 5
-3 6 2 3 10 -3 9 -10 13 -15 10 -5 -3 -6 5 -1 18 4 13 7 58 6 101 -1 52 1 75
8 70 7 -4 8 -1 2 8 -14 23 -15 52 -2 61 7 4 8 8 2 8 -15 0 -15 782 0 792 8 5
8 8 0 8 -7 0 -11 36 -11 100 0 55 4 97 8 94 5 -3 6 2 3 10 -3 9 -10 13 -15 10
-5 -3 -6 5 -1 18 4 13 7 58 6 101 -1 52 1 75 8 70 7 -4 8 -1 2 8 -14 23 -15
52 -2 61 7 4 8 8 2 8 -15 0 -15 782 0 792 8 5 8 8 0 8 -7 0 -11 36 -11 100 0
55 4 97 8 94 5 -3 6 2 3 10 -3 9 -11 13 -16 10 -6 -4 -6 0 0 13 7 11 7 25 1
35 -6 11 -5 19 2 23 7 5 3 12 -10 22 -16 11 -29 12 -55 4 -27 -7 -38 -6 -47 5
-6 7 -16 11 -21 7 -6 -3 -31 -7 -57 -7 -26 -1 -51 -5 -58 -9 -6 -4 -16 0 -23
8 -7 8 -17 12 -23 8 -16 -10 -100 -10 -121 0 -13 6 -16 6 -12 -2 8 -12 -21
-11 -41 2 -6 4 -14 3 -18 -3 -3 -5 -11 -10 -16 -10 -6 0 -8 4 -5 8 3 5 -1 9
-9 9 -8 0 -12 -4 -9 -9 8 -13 -10 -10 -25 5 -11 10 -13 10 -7 0 9 -16 1 -16
-26 -2 -15 8 -19 8 -14 0 4 -6 2 -11 -3 -11 -6 0 -11 -9 -11 -20 0 -10 -8 -24
-18 -29 -11 -7 -13 -10 -3 -11 10 0 11 -3 2 -13 -6 -8 -8 -17 -4 -20 3 -4 1
-7 -5 -7 -7 0 -12 -9 -12 -20 0 -11 -4 -20 -10 -20 -5 0 -7 -7 -4 -15 4 -8 1
-15 -5 -15 -6 0 -10 -3 -10 -7 4 -24 -2 -43 -12 -37 -8 4 -9 0 -4 -15 4 -13 2
-21 -5 -21 -8 0 -10 -8 -7 -21 3 -12 0 -22 -9 -26 -8 -3 -13 -13 -12 -22 2 -9
-2 -15 -8 -14 -7 1 -11 -3 -11 -10 1 -37 -4 -57 -13 -52 -6 4 -10 -5 -10 -19
0 -14 -5 -26 -11 -26 -5 0 -7 -4 -4 -10 3 -5 0 -20 -7 -32 -6 -13 -13 -29 -14
-36 -1 -6 -13 -35 -27 -62 -14 -28 -20 -50 -14 -50 5 0 3 -8 -5 -17 -17 -19
-33 -60 -37 -94 0 -5 -6 -7 -13 -3 -7 4 -8 3 -4 -4 4 -7 -2 -33 -13 -58 -12
-26 -21 -53 -21 -61 0 -8 -4 -12 -8 -9 -4 2 -8 -3 -9 -12 -3 -35 -10 -54 -24
-63 -8 -5 -10 -9 -5 -9 5 0 3 -7 -4 -15 -10 -12 -10 -15 1 -15 9 -1 8 -4 -4
-11 -9 -6 -15 -14 -12 -19 3 -5 1 -11 -5 -15 -6 -4 -8 -11 -5 -16 4 -5 2 -9
-4 -9 -6 0 -8 -7 -5 -15 4 -8 -1 -17 -9 -21 -9 -3 -14 -16 -13 -34 1 -16 -2
-28 -8 -27 -6 1 -11 -8 -12 -21 -1 -12 -10 -32 -20 -44 -11 -12 -13 -18 -6
-14 17 10 15 -2 -4 -21 -8 -9 -13 -22 -10 -30 3 -7 -1 -16 -10 -20 -8 -3 -13
-12 -10 -19 3 -7 -1 -20 -9 -28 -8 -7 -12 -16 -9 -19 3 -3 -2 -17 -11 -31 -10
-14 -14 -26 -10 -26 4 0 2 -6 -4 -13 -6 -8 -8 -17 -4 -20 3 -4 2 -7 -4 -7 -6
0 -14 -7 -17 -16 -3 -9 -2 -12 4 -9 6 4 2 -9 -9 -28 -11 -19 -17 -38 -14 -41
4 -3 1 -6 -6 -6 -7 0 -11 -6 -8 -14 3 -8 2 -16 -3 -18 -5 -2 -11 -14 -13 -27
-2 -14 -9 -27 -15 -29 -6 -2 -8 -10 -5 -19 4 -10 2 -14 -4 -10 -6 4 -11 1 -10
-6 1 -39 -4 -58 -15 -51 -6 4 -8 3 -5 -3 4 -6 -2 -27 -13 -48 -11 -21 -17 -42
-14 -47 3 -4 -2 -11 -11 -14 -13 -6 -14 -8 -3 -15 10 -7 10 -9 0 -9 -7 0 -12
-8 -10 -17 2 -11 -2 -17 -10 -15 -8 1 -11 -2 -8 -7 4 -5 1 -22 -6 -38 -6 -15
-10 -32 -9 -38 1 -5 -4 -14 -11 -20 -12 -9 -17 -20 -22 -50 -1 -5 -5 -16 -9
-22 -5 -7 -5 -13 0 -13 4 0 2 -4 -4 -8 -7 -4 -14 -19 -15 -32 -2 -14 -7 -28
-13 -32 -5 -4 -11 -12 -11 -18 -1 -5 -3 -12 -4 -15 -1 -3 -3 -8 -4 -12 -1 -5
-7 -18 -14 -30 -7 -13 -10 -23 -6 -23 3 0 1 -7 -7 -16 -7 -9 -13 -25 -14 -36
-1 -11 -6 -23 -12 -26 -6 -4 -13 -24 -17 -44 -4 -21 -12 -38 -19 -38 -8 0 -8
-3 1 -9 11 -7 11 -9 -2 -14 -9 -4 -16 -15 -16 -25 0 -10 -9 -36 -19 -58 -11
-21 -17 -42 -14 -46 2 -5 -1 -8 -7 -8 -7 0 -10 -7 -6 -15 3 -8 1 -15 -4 -15
-6 0 -10 -7 -10 -15 0 -8 -4 -23 -9 -33 -9 -15 -22 -48 -26 -62 -8 -30 -31
-80 -37 -80 -4 0 -7 -3 -7 -7 4 -25 -2 -53 -11 -48 -6 3 -7 -1 -4 -9 3 -9 1
-16 -6 -16 -6 0 -9 -3 -7 -8 3 -4 -3 -25 -14 -46 -10 -21 -16 -42 -14 -47 3
-4 -1 -14 -9 -21 -7 -8 -17 -29 -21 -46 -3 -18 -11 -32 -15 -32 -5 0 -7 -6 -4
-14 3 -8 0 -17 -5 -21 -6 -3 -9 -11 -6 -16 4 -5 1 -9 -6 -9 -7 0 -9 -3 -6 -7
4 -3 2 -12 -4 -19 -6 -8 -9 -21 -5 -29 3 -9 2 -14 -3 -11 -10 7 -21 -17 -21
-45 0 -10 -5 -19 -11 -19 -7 0 -9 -10 -7 -25 3 -14 1 -23 -6 -22 -6 1 -12 -9
-14 -23 -2 -14 -10 -29 -18 -33 -8 -5 -12 -12 -9 -17 3 -4 -2 -24 -10 -44 -8
-20 -12 -36 -8 -36 5 0 2 -4 -5 -9 -7 -4 -14 -14 -15 -22 -2 -8 -6 -20 -10
-26 -5 -7 -6 -17 -3 -22 3 -5 -1 -11 -9 -15 -8 -3 -15 -16 -15 -30 0 -13 -7
-26 -15 -30 -8 -3 -12 -12 -9 -20 3 -8 -1 -25 -10 -38 -9 -12 -17 -18 -18 -13
-3 23 -6 32 -16 58 -7 16 -12 35 -12 43 0 8 -5 14 -11 14 -5 0 -8 4 -4 9 3 5
0 15 -7 23 -7 7 -15 24 -16 38 -2 14 -8 27 -13 28 -5 2 -7 8 -3 13 3 5 -1 9
-8 9 -9 0 -9 3 2 10 13 8 12 10 -3 10 -14 0 -17 5 -12 20 4 12 2 20 -5 20 -7
0 -10 8 -7 20 3 13 -2 25 -14 33 -10 8 -16 17 -13 20 4 4 -1 18 -11 33 -9 15
-12 23 -5 19 8 -5 7 0 -2 14 -7 12 -15 21 -18 21 -3 0 -7 9 -8 20 -4 43 -6 50
-14 50 -4 0 -8 9 -8 21 0 11 -4 18 -9 14 -6 -3 -8 4 -6 15 2 11 0 20 -6 20 -5
0 -8 3 -7 8 0 4 -2 15 -5 25 -4 9 -10 25 -14 35 -3 9 -5 20 -5 25 1 4 -3 7 -8
7 -6 0 -10 5 -10 11 0 5 6 7 13 3 12 -8 -21 36 -37 47 -4 4 -3 10 3 13 6 4 11
12 11 17 0 6 -4 7 -10 4 -9 -6 -14 8 -11 28 0 4 -4 7 -11 7 -6 0 -8 3 -5 7 4
3 2 12 -4 19 -6 8 -8 22 -5 31 4 10 4 14 0 10 -8 -8 -34 38 -34 59 0 8 -5 14
-11 14 -5 0 -7 4 -4 10 3 5 -1 22 -9 38 -8 16 -12 32 -9 36 4 3 1 6 -6 6 -8 0
-11 7 -7 15 3 8 1 15 -4 15 -6 0 -10 9 -10 20 0 11 -5 20 -11 20 -5 0 -8 4 -4
9 3 5 0 13 -6 16 -5 4 -8 13 -5 20 2 7 -1 16 -8 18 -8 3 -12 17 -11 31 2 14 0
24 -5 21 -10 -6 -22 24 -14 36 3 5 0 9 -5 9 -6 0 -11 9 -11 19 0 11 -4 22 -9
25 -5 4 -15 29 -22 56 -7 28 -17 50 -22 50 -5 0 -6 7 -3 16 4 10 2 13 -6 8 -7
-5 -9 -1 -6 12 3 11 -1 25 -9 32 -7 7 -11 17 -8 23 4 5 1 9 -5 9 -6 0 -8 5 -5
10 3 6 1 10 -5 10 -6 0 -8 4 -5 10 3 5 -1 20 -8 32 -8 13 -13 31 -12 41 2 9
-1 15 -5 12 -11 -7 -18 5 -25 46 -3 18 -11 37 -18 41 -7 4 -8 8 -3 8 5 0 3 7
-4 15 -6 8 -9 18 -6 24 3 5 1 11 -5 13 -6 2 -12 16 -12 31 -1 15 -7 27 -14 27
-7 0 -10 6 -7 14 3 8 0 17 -5 21 -6 3 -9 11 -6 16 4 5 1 9 -5 9 -6 0 -8 5 -5
10 3 6 0 10 -7 10 -11 0 -10 2 0 9 11 6 10 10 -3 15 -10 3 -15 12 -12 20 3 8
1 16 -4 18 -5 2 -11 13 -12 26 0 12 -5 22 -9 22 -4 0 -8 7 -8 15 0 8 -6 15
-12 15 -10 0 -10 2 0 9 11 7 11 11 -2 23 -8 9 -12 18 -9 22 4 3 1 6 -7 6 -10
0 -10 4 1 17 10 11 10 14 2 9 -8 -4 -13 -1 -13 8 0 9 -4 16 -10 16 -5 0 -7 6
-4 14 3 8 0 17 -5 21 -6 3 -9 11 -6 16 4 5 1 9 -4 9 -6 0 -11 11 -11 25 0 14
-4 25 -10 25 -5 0 -13 18 -16 40 -4 22 -11 40 -16 40 -6 0 -8 7 -4 15 3 8 2
15 -3 15 -5 0 -15 20 -22 45 -7 25 -17 45 -22 45 -4 0 -5 5 -2 10 3 6 2 10 -4
10 -6 0 -8 7 -5 15 3 8 -1 22 -10 31 -9 8 -14 19 -11 24 3 5 1 10 -5 12 -5 1
-11 15 -12 31 -1 15 -5 27 -9 27 -3 0 -12 20 -19 45 -7 25 -17 48 -21 51 -5 3
-9 14 -9 25 0 10 -4 19 -10 19 -5 0 -10 5 -10 11 0 5 6 7 13 4 6 -4 4 0 -5 8
-10 8 -15 17 -11 21 4 4 3 10 -2 14 -11 8 -36 68 -38 92 -1 8 -6 18 -12 22 -5
4 -10 11 -11 15 -2 29 -17 73 -25 73 -6 0 -8 4 -4 9 3 5 -2 17 -11 25 -8 9
-12 16 -8 16 3 0 0 8 -7 17 -9 11 -10 14 -2 9 9 -5 11 -2 7 8 -3 9 -10 16 -15
16 -5 0 -9 11 -9 25 0 14 -4 25 -8 25 -5 0 -9 6 -9 13 -1 24 -8 42 -23 54 -13
11 -13 12 0 13 13 0 13 2 1 9 -8 5 -16 17 -17 27 -2 10 -7 27 -12 39 -27 59
-35 81 -33 93 1 6 -3 12 -9 12 -5 0 -10 9 -10 20 0 11 -4 20 -10 20 -5 0 -7 7
-4 15 4 8 2 15 -4 15 -6 0 -9 8 -8 18 2 9 0 19 -3 22 -9 8 -51 113 -51 129 0
8 -3 11 -7 8 -3 -4 -12 -2 -19 4 -8 7 -14 6 -20 -2 -5 -8 -3 -9 6 -4 8 5 11 4
6 -3 -4 -6 -13 -9 -21 -6 -8 4 -12 11 -9 16 4 6 -2 5 -14 -1 -25 -13 -35 -14
-28 -3 3 5 -1 9 -9 9 -8 0 -12 -4 -9 -9 8 -13 -10 -10 -25 5 -10 8 -12 8 -7 0
4 -8 -2 -11 -21 -8 -16 2 -28 4 -28 5 0 1 -10 3 -22 4 -12 1 -20 -1 -17 -5 2
-4 0 -10 -6 -14 -5 -3 -10 -1 -10 6 0 7 -3 9 -7 6 -3 -4 -12 -2 -20 4 -7 6
-13 8 -13 3 0 -5 -11 -10 -25 -10 -14 -1 -23 1 -20 5 2 4 -2 8 -10 8 -8 0 -12
-4 -9 -9 8 -13 -10 -10 -25 5 -10 8 -12 8 -7 0 4 -8 -2 -11 -21 -8 -16 2 -28
4 -28 5 0 1 -10 3 -22 4 -12 1 -20 -1 -17 -5 2 -4 0 -10 -6 -14 -5 -3 -10 -1
-10 6 0 7 -3 9 -7 6 -3 -4 -12 -2 -20 4 -8 7 -13 7 -13 2z"/>
<path d="M3970 6129 c0 -5 5 -7 10 -4 6 3 10 8 10 11 0 2 -4 4 -10 4 -5 0 -10
-5 -10 -11z"/>
<path d="M4130 6129 c0 -5 5 -7 10 -4 6 3 10 8 10 11 0 2 -4 4 -10 4 -5 0 -10
-5 -10 -11z"/>
<path d="M4577 6132 c-3 -4 -4 -24 -3 -45 1 -20 -3 -37 -9 -37 -5 0 -3 -5 5
-10 10 -6 11 -10 3 -10 -9 0 -10 -7 -3 -26 13 -33 13 -37 -2 -28 -9 5 -9 2 1
-9 8 -11 9 -17 2 -17 -7 0 -8 -8 -1 -25 7 -18 6 -25 -3 -25 -7 0 -8 -3 -2 -8
13 -9 14 -62 0 -62 -5 0 -3 -5 5 -10 9 -6 10 -10 3 -10 -8 0 -9 -9 -3 -30 5
-16 5 -30 0 -30 -6 0 0 -50 10 -79 1 -2 -4 -8 -12 -12 -9 -6 -9 -9 -1 -9 8 0
9 -9 4 -28 -5 -15 -4 -37 0 -50 5 -13 4 -22 -1 -22 -6 0 -6 -10 0 -26 13 -33
13 -37 -2 -28 -9 5 -9 2 1 -9 8 -10 9 -17 3 -17 -7 0 -8 -10 -2 -30 6 -21 5
-30 -3 -30 -7 0 -6 -4 3 -10 10 -6 11 -10 3 -10 -9 0 -10 -7 -3 -26 13 -33 13
-37 -2 -28 -9 5 -9 2 1 -9 8 -11 9 -17 2 -17 -7 0 -8 -8 -1 -25 7 -18 6 -25
-3 -25 -7 0 -8 -3 -2 -8 13 -9 14 -62 0 -62 -5 0 -3 -5 5 -10 9 -6 10 -10 3
-10 -8 0 -9 -9 -3 -30 5 -16 5 -30 0 -30 -6 0 0 -50 10 -79 1 -2 -4 -8 -12
-12 -9 -6 -9 -9 -1 -9 8 0 9 -9 4 -28 -5 -15 -4 -37 0 -50 5 -13 4 -22 -1 -22
-6 0 -6 -10 0 -26 13 -33 13 -37 -2 -28 -9 5 -9 2 1 -9 8 -10 9 -17 3 -17 -7
0 -8 -10 -2 -30 6 -21 5 -30 -3 -30 -7 0 -6 -4 3 -10 10 -6 11 -10 3 -10 -9 0
-10 -7 -3 -26 13 -33 13 -37 -2 -28 -9 5 -9 2 1 -9 8 -11 9 -17 2 -17 -7 0 -8
-8 -1 -25 7 -18 6 -25 -3 -25 -7 0 -8 -3 -2 -8 13 -9 14 -62 0 -62 -5 0 -3 -5
5 -10 9 -6 10 -10 3 -10 -8 0 -9 -9 -3 -30 5 -16 5 -30 0 -30 -6 0 0 -50 10
-79 1 -2 -4 -8 -12 -12 -9 -6 -9 -9 -1 -9 8 0 9 -9 4 -28 -5 -15 -4 -37 0 -50
5 -13 4 -22 -1 -22 -6 0 -6 -10 0 -26 13 -33 13 -37 -2 -28 -9 5 -9 2 1 -9 8
-10 9 -17 3 -17 -7 0 -8 -10 -2 -30 6 -21 5 -30 -3 -30 -7 0 -6 -4 3 -10 10
-6 11 -10 3 -10 -9 0 -10 -7 -3 -26 13 -33 13 -37 -2 -28 -9 5 -9 2 1 -9 8
-11 9 -17 2 -17 -7 0 -8 -8 -1 -25 7 -18 6 -25 -3 -25 -7 0 -8 -3 -2 -8 13 -9
14 -62 0 -62 -5 0 -3 -5 5 -10 9 -6 10 -10 3 -10 -8 0 -9 -9 -3 -30 5 -16 5
-30 0 -30 -6 0 -3 -31 9 -74 2 -5 -3 -13 -11 -17 -9 -6 -9 -9 -1 -9 8 0 9 -9
4 -28 -5 -15 -4 -37 0 -50 5 -13 4 -22 -1 -22 -6 0 -6 -10 0 -26 13 -33 13
-37 -2 -28 -9 5 -9 2 1 -9 8 -10 9 -17 3 -17 -7 0 -8 -10 -2 -30 6 -21 5 -30
-3 -30 -7 0 -6 -4 3 -10 10 -6 11 -10 3 -10 -9 0 -10 -7 -3 -26 13 -33 13 -37
-2 -28 -9 5 -9 2 1 -9 8 -11 9 -17 2 -17 -7 0 -8 -8 -1 -25 7 -18 6 -25 -3
-25 -7 0 -8 -3 -2 -8 13 -9 14 -62 0 -62 -5 0 -3 -5 5 -10 9 -6 10 -10 3 -10
-8 0 -9 -9 -3 -30 5 -16 5 -30 0 -30 -6 0 0 -50 10 -79 1 -2 -4 -8 -12 -12 -9
-6 -9 -9 -1 -9 8 0 9 -9 4 -28 -5 -15 -4 -37 0 -50 5 -13 4 -22 -1 -22 -6 0
-6 -10 0 -26 13 -33 13 -37 -2 -28 -9 5 -9 2 1 -9 7 -9 9 -17 4 -17 -6 0 -9
-11 -7 -25 2 -14 6 -36 8 -50 2 -14 -2 -25 -8 -25 -6 0 -4 -5 4 -10 8 -5 10
-10 4 -10 -8 0 -9 -11 -4 -35 5 -21 4 -35 -2 -35 -5 0 -6 -5 -3 -11 12 -18 13
-59 1 -59 -6 0 -4 -5 4 -10 8 -5 10 -10 4 -10 -8 0 -9 -11 -4 -35 5 -21 4 -35
-2 -35 -5 0 -6 -5 -3 -11 12 -18 13 -59 1 -59 -6 0 -4 -5 4 -10 8 -5 10 -10 4
-10 -8 0 -9 -11 -4 -35 5 -21 4 -35 -2 -35 -5 0 -6 -5 -3 -11 12 -18 13 -59 1
-59 -6 0 -4 -5 4 -10 9 -6 11 -10 3 -10 -7 0 -10 -6 -8 -12 11 -35 12 -78 2
-78 -8 0 -8 -3 -2 -8 13 -9 14 -62 0 -62 -5 0 -3 -5 5 -10 9 -6 10 -10 3 -10
-8 0 -9 -9 -3 -30 5 -16 5 -30 0 -30 -6 0 0 -50 10 -79 1 -2 -4 -8 -12 -12 -9
-6 -9 -9 -1 -9 8 0 9 -9 4 -27 -8 -34 -3 -73 10 -73 6 0 7 -5 3 -12 -5 -7 -3
-8 7 -2 19 12 51 16 45 6 -3 -5 1 -9 9 -9 8 0 12 4 9 9 -6 10 78 4 96 -7 9 -5
11 -4 6 3 -4 7 -1 12 9 12 9 0 13 -4 10 -10 -4 -6 2 -7 18 -1 17 7 29 6 37 -2
10 -9 11 -9 6 0 -5 9 5 12 33 10 24 -1 37 -5 33 -12 -3 -5 1 -4 9 2 12 10 18
10 29 0 10 -9 11 -9 6 1 -4 6 -3 12 1 12 5 0 15 -6 22 -12 11 -10 12 -10 7 -1
-5 10 4 12 37 10 24 -2 49 -7 57 -12 9 -5 11 -4 6 3 -4 7 -1 12 9 12 9 0 13
-4 10 -10 -4 -6 2 -7 18 -1 17 7 29 6 37 -2 10 -9 11 -9 6 1 -5 7 -1 12 9 12
9 0 13 -4 10 -10 -4 -7 3 -7 20 0 34 13 38 13 29 -2 -6 -10 -5 -10 7 -1 12 10
18 10 29 0 10 -9 11 -9 6 1 -4 6 -3 12 1 12 5 0 15 -6 22 -12 11 -10 12 -10 7
-1 -5 10 4 12 37 10 24 -2 49 -7 57 -12 9 -5 11 -4 6 3 -4 7 -1 12 9 12 9 0
13 -4 10 -10 -4 -6 2 -7 18 -1 17 7 29 6 37 -2 10 -9 11 -9 6 0 -5 9 5 12 33
10 24 -1 37 -5 33 -12 -3 -5 1 -4 9 2 12 10 18 10 29 0 10 -9 11 -9 6 1 -9 16
6 16 23 0 11 -10 12 -10 7 -1 -5 10 4 12 37 10 24 -2 49 -7 57 -12 9 -5 11 -4
6 3 -4 7 -1 12 9 12 9 0 13 -4 10 -10 -4 -6 2 -7 18 -1 17 7 29 6 37 -2 10 -9
11 -9 6 1 -5 7 -1 12 9 12 9 0 13 -4 10 -10 -4 -7 3 -7 20 0 34 13 38 13 29
-2 -6 -10 -5 -10 7 -1 12 10 18 10 29 0 10 -9 11 -9 6 1 -4 6 -3 12 1 12 5 0
15 -6 22 -12 11 -10 12 -10 7 -1 -5 10 4 12 37 10 24 -2 49 -7 57 -12 9 -5 11
-4 6 3 -4 7 -1 12 9 12 9 0 13 -4 10 -10 -4 -6 2 -7 18 -1 17 7 29 6 37 -2 10
-9 11 -9 6 0 -5 9 5 12 33 10 24 -1 37 -5 33 -12 -3 -5 1 -4 9 2 12 10 18 10
29 0 10 -9 11 -9 6 1 -9 16 6 16 23 0 11 -10 12 -10 7 -1 -5 10 4 12 37 10 24
-2 49 -7 57 -12 9 -5 11 -4 6 3 -4 7 -1 12 9 12 9 0 14 -4 11 -8 -2 -4 4 -8
14 -8 10 0 17 3 14 7 -2 4 30 7 71 6 41 0 78 2 81 6 4 4 13 2 20 -3 8 -8 17
-6 28 5 9 9 16 12 16 6 0 -6 7 -11 15 -11 8 0 15 6 15 13 0 9 3 8 9 -2 6 -10
10 -10 16 -1 6 9 10 9 16 -1 5 -9 9 -9 9 -3 0 7 17 12 38 13 37 2 87 8 87 11
0 1 20 4 45 6 25 3 47 9 50 13 3 3 16 6 30 6 14 -1 31 3 38 8 6 5 12 6 12 2 0
-4 6 -3 13 2 6 5 21 9 32 9 11 -1 23 3 26 8 4 4 20 9 37 9 20 1 28 6 25 15 -4
9 2 12 19 8 13 -2 32 2 43 10 10 8 27 14 37 14 10 0 18 5 18 10 0 6 9 10 20
10 11 0 20 4 20 10 0 5 3 9 8 9 19 -3 33 2 27 11 -3 5 0 7 8 4 8 -3 20 2 27
11 7 8 19 15 26 15 8 0 14 5 14 11 0 6 9 9 20 6 10 -3 18 -2 17 2 -3 9 40 50
47 43 3 -3 6 1 6 8 0 7 3 10 6 7 4 -3 19 7 34 23 16 17 34 30 41 30 7 0 10 3
7 6 -8 7 28 44 43 44 5 0 8 4 5 8 -3 5 6 16 20 26 13 11 24 23 24 29 0 5 7 15
14 21 8 6 16 18 18 26 2 8 11 21 21 28 9 7 17 20 17 28 0 8 5 14 11 14 5 0 7
4 4 10 -3 6 -1 10 5 10 6 0 8 5 5 10 -3 6 -1 10 5 10 7 0 10 7 6 15 -3 8 0 14
6 12 7 -1 12 5 13 13 0 8 6 25 13 38 7 12 10 26 8 31 -3 5 1 12 10 15 8 3 12
10 9 16 -3 5 -3 16 2 23 7 12 12 27 17 57 1 8 7 24 13 35 6 11 8 26 6 33 -3 7
1 20 9 29 11 14 11 16 -2 8 -12 -7 -13 -6 -4 6 6 8 10 22 9 32 -2 9 0 17 5 17
4 0 5 16 3 36 -2 20 0 33 6 30 12 -8 9 27 -4 37 -6 4 -4 11 5 17 9 6 11 13 5
18 -13 10 -18 35 -5 27 5 -3 10 -1 10 4 0 6 -5 11 -11 11 -8 0 -7 5 2 16 10
13 10 17 0 24 -10 5 -10 9 -2 15 9 5 9 10 0 21 -9 11 -9 17 1 29 7 8 8 15 3
15 -6 0 -10 14 -11 30 0 21 3 28 11 24 8 -5 8 -3 0 7 -7 7 -13 26 -13 41 0 16
-6 28 -12 28 -9 0 -8 4 2 10 8 5 10 10 5 10 -6 0 -12 14 -13 31 -1 18 -6 37
-10 43 -3 6 -8 22 -10 36 -2 13 -6 27 -10 30 -4 3 -9 14 -10 25 -2 11 -8 23
-13 26 -5 3 -10 17 -11 32 -1 15 -5 27 -8 27 -3 0 -16 21 -30 48 -14 26 -33
56 -42 66 -10 11 -18 25 -18 32 0 6 -10 19 -22 28 -13 9 -16 14 -8 9 19 -9
-104 112 -154 152 -20 17 -41 29 -47 28 -5 -2 -9 4 -9 13 0 8 -4 12 -10 9 -5
-3 -10 -1 -10 4 0 6 -6 11 -14 11 -8 0 -22 7 -30 16 -9 8 -16 12 -16 7 0 -4
-7 0 -14 10 -8 10 -17 18 -20 18 -26 -3 -36 1 -30 11 4 6 3 8 -3 5 -14 -9 -65
18 -55 29 4 4 -1 2 -11 -6 -15 -11 -20 -11 -26 -1 -5 7 -14 13 -22 14 -8 2
-20 7 -28 11 -10 7 -12 5 -6 -3 6 -10 3 -11 -14 -2 -11 7 -21 17 -21 24 0 8
-3 8 -9 -2 -7 -11 -9 -11 -14 0 -4 11 -6 11 -6 1 -1 -7 -6 -10 -12 -7 -5 4
-25 9 -42 12 -18 2 -36 9 -42 15 -7 8 -6 9 3 4 6 -4 12 -3 12 3 0 5 8 10 18 9
9 0 31 5 49 10 17 6 35 7 39 4 4 -4 4 -1 0 6 -6 10 15 18 28 10 2 -2 12 4 22
12 11 8 30 21 43 28 19 11 22 11 15 0 -6 -10 -4 -10 9 1 9 7 15 17 12 20 -2 4
2 8 10 9 8 1 22 3 30 4 8 1 12 5 9 10 -3 4 3 11 12 15 10 3 26 15 36 25 10 10
24 16 30 12 6 -4 9 -3 6 2 -7 11 67 85 76 77 3 -4 6 1 6 10 0 9 8 21 18 26 9
6 14 11 10 11 -4 0 6 13 22 28 16 16 27 32 23 35 -3 4 2 9 11 13 9 3 16 12 16
20 0 8 5 14 11 14 5 0 7 5 4 10 -3 6 -2 10 3 10 6 0 13 11 16 25 4 14 10 24
14 21 4 -2 9 5 9 16 1 12 6 24 10 27 4 3 9 13 11 21 2 8 8 17 13 18 5 2 7 8 4
13 -3 4 1 22 10 38 8 17 15 34 14 38 -3 19 2 34 9 29 5 -3 8 9 7 27 -1 18 2
40 6 49 5 9 10 36 11 60 2 24 8 46 13 51 7 5 7 10 0 15 -13 10 -18 35 -5 27 5
-3 10 -1 10 4 0 6 -4 11 -10 11 -5 0 -10 5 -10 11 0 5 4 8 8 5 11 -6 9 25 -3
43 -5 10 -4 12 3 7 7 -4 12 -2 12 3 0 6 -5 11 -10 11 -7 0 -7 6 0 20 7 14 7
20 0 20 -5 0 -10 5 -10 11 0 5 5 7 12 3 7 -5 8 -3 3 6 -5 8 -10 36 -12 64 -2
28 -8 53 -14 54 -6 3 -5 10 3 20 11 13 11 14 -1 7 -11 -6 -13 -3 -9 13 4 12 2
22 -3 22 -4 0 -5 7 -2 17 4 10 2 14 -5 9 -7 -4 -9 2 -6 18 2 14 0 28 -6 31 -6
4 -8 11 -5 16 4 5 1 9 -4 9 -6 0 -11 10 -11 23 0 12 -7 31 -15 41 -8 10 -12
23 -9 27 3 5 1 9 -4 9 -5 0 -15 14 -22 30 -7 17 -17 30 -22 30 -5 0 -7 4 -4 8
3 5 -6 20 -19 34 -13 14 -21 29 -18 32 4 3 -1 6 -11 6 -9 0 -15 4 -12 9 3 5
-5 17 -19 27 -13 10 -22 22 -19 26 3 4 -5 12 -18 17 -13 6 -18 10 -13 11 6 0
-1 6 -15 13 -14 8 -24 19 -23 25 2 7 -4 9 -14 5 -10 -4 -14 -2 -10 4 3 5 -10
17 -29 26 -21 11 -32 22 -28 29 4 6 3 8 -4 4 -6 -3 -14 -1 -17 5 -4 5 -13 8
-21 5 -8 -3 -14 1 -14 9 0 8 -3 15 -7 14 -16 -2 -53 14 -53 23 0 5 -4 6 -10 3
-5 -3 -10 -2 -10 4 0 5 -13 12 -30 16 -16 4 -30 11 -30 16 0 6 -4 8 -8 5 -5
-3 -20 1 -33 8 -14 7 -33 12 -43 10 -11 -1 -16 2 -13 10 3 7 -1 13 -9 13 -7 0
-10 -5 -7 -11 4 -6 -1 -5 -10 2 -9 8 -21 11 -27 7 -5 -3 -10 -1 -10 5 0 6 -4
8 -10 5 -5 -3 -10 -2 -10 4 0 5 -8 8 -19 6 -10 -2 -31 3 -45 10 -16 9 -24 10
-20 3 5 -7 2 -8 -7 -2 -8 4 -18 9 -24 10 -5 1 -19 6 -29 10 -15 6 -17 4 -11
-7 7 -11 6 -12 -7 -2 -8 7 -18 10 -21 6 -4 -3 -7 0 -7 7 0 7 -3 10 -7 7 -3 -4
-13 -1 -21 6 -13 9 -14 9 -8 0 9 -16 -4 -16 -38 -3 -19 7 -26 6 -26 -3 0 -8
-3 -8 -8 -2 -4 6 -18 10 -32 10 -14 0 -31 6 -38 15 -8 8 -11 9 -7 3 8 -16 -10
-17 -37 -2 -13 7 -18 7 -14 1 3 -6 2 -13 -4 -17 -5 -3 -10 -1 -10 5 0 6 -4 9
-9 5 -5 -3 -13 0 -16 5 -5 7 -11 5 -19 -6 -10 -13 -15 -14 -21 -4 -6 9 -4 11
5 5 9 -5 11 -4 6 4 -5 7 -13 8 -24 2 -9 -5 -26 -5 -40 0 -13 5 -21 5 -18 1 2
-4 -4 -8 -14 -8 -10 0 -16 4 -14 8 3 4 0 8 -5 8 -6 0 -11 -5 -11 -12 0 -9 -3
-9 -12 0 -13 13 -32 16 -24 4 2 -4 -4 -8 -14 -8 -10 0 -16 4 -14 8 3 4 0 8 -5
8 -6 0 -11 -5 -11 -12 0 -9 -3 -9 -12 0 -13 13 -32 16 -24 4 2 -4 -4 -8 -14
-8 -10 0 -16 4 -14 8 3 4 0 8 -5 8 -6 0 -11 -5 -11 -12 0 -9 -3 -9 -12 0 -13
13 -32 16 -24 4 2 -4 -4 -8 -14 -8 -10 0 -16 4 -14 8 3 4 0 8 -5 8 -6 0 -11
-5 -11 -12 0 -9 -3 -9 -12 0 -13 13 -32 16 -24 4 2 -4 -4 -8 -14 -8 -10 0 -16
4 -14 8 3 4 0 8 -5 8 -6 0 -11 -5 -11 -12 0 -9 -3 -9 -12 0 -13 13 -32 16 -24
4 2 -4 -4 -8 -14 -8 -10 0 -16 4 -14 8 3 4 0 8 -5 8 -6 0 -11 -5 -11 -12 0 -9
-3 -9 -12 0 -13 13 -32 16 -24 4 2 -4 -4 -8 -14 -8 -10 0 -16 4 -14 8 3 4 0 8
-5 8 -6 0 -11 -5 -11 -12 0 -9 -3 -9 -12 0 -13 13 -32 16 -24 4 2 -4 -4 -8
-14 -8 -10 0 -16 4 -14 8 3 4 0 8 -5 8 -6 0 -11 -5 -11 -11 0 -8 -4 -8 -13 0
-10 8 -17 7 -27 -2 -10 -9 -11 -9 -6 1 4 6 2 12 -3 12 -6 0 -11 -6 -11 -12 0
-8 -3 -9 -8 -3 -9 13 -32 18 -32 7 0 -4 -9 -8 -19 -8 -11 0 -18 3 -16 6 2 4
-12 6 -30 6 -19 -1 -35 -5 -35 -10 0 -5 -7 -3 -15 4 -12 10 -21 10 -40 2 -17
-8 -26 -8 -31 -1 -4 8 -9 7 -15 -2 -5 -8 -9 -9 -9 -3 0 6 -7 11 -15 11 -8 0
-15 -3 -15 -7 0 -3 -9 -6 -19 -6 -11 0 -18 3 -16 6 2 4 -12 6 -30 6 -19 -1
-35 -5 -35 -10 0 -5 -7 -3 -15 4 -12 10 -21 10 -40 2 -17 -8 -26 -8 -31 -1 -4
8 -9 7 -15 -2 -5 -8 -9 -9 -9 -3 0 6 -7 11 -15 11 -8 0 -15 -3 -15 -7 0 -3 -9
-6 -19 -6 -11 0 -18 3 -16 6 2 4 -12 6 -30 6 -19 -1 -35 -5 -35 -10 0 -5 -7
-3 -15 4 -12 10 -21 10 -40 2 -17 -8 -26 -8 -31 -1 -4 8 -9 7 -15 -2 -5 -8 -9
-9 -9 -3 0 6 -7 11 -15 11 -8 0 -15 -3 -15 -7 0 -3 -9 -6 -19 -6 -11 0 -18 3
-16 6 2 4 -12 6 -30 6 -19 -1 -35 -5 -35 -10 0 -5 -7 -3 -15 4 -12 10 -21 10
-40 2 -17 -8 -26 -8 -31 -1 -4 8 -9 7 -15 -2 -5 -8 -9 -9 -9 -3 0 6 -7 11 -15
11 -8 0 -15 -3 -15 -7 0 -3 -9 -6 -19 -6 -11 0 -17 4 -15 8 7 10 1 10 -31 -2
-17 -7 -24 -7 -20 0 3 6 1 10 -4 10 -6 0 -11 -5 -11 -12 0 -9 -3 -9 -12 0 -14
14 -34 16 -41 4z m473 -352 c0 -11 28 -9 48 3 6 5 12 4 12 -1 0 -12 34 -11 43
2 5 8 9 8 15 -1 8 -13 29 -13 50 0 6 5 12 4 12 -1 0 -12 34 -11 43 2 5 8 9 8
15 -1 8 -13 29 -13 50 0 6 5 12 4 12 -1 0 -12 33 -11 43 2 6 7 10 7 13 1 5
-12 353 -13 372 -1 7 4 12 3 12 -2 0 -12 34 -11 43 2 5 8 9 8 15 -1 8 -13 29
-13 50 0 6 5 12 4 12 -1 0 -12 34 -11 43 2 5 8 9 8 15 -1 8 -13 29 -13 50 0 6
5 12 4 12 -1 0 -12 34 -11 42 2 5 7 8 6 8 -3 0 -11 3 -11 15 -1 8 7 15 8 15 3
0 -13 33 -12 43 1 5 8 9 8 15 -1 8 -13 29 -13 50 0 6 5 12 4 12 -1 0 -12 34
-11 43 2 5 8 9 8 15 -1 8 -13 29 -13 50 0 6 5 12 4 12 0 0 -5 9 -9 20 -10 11
-1 20 3 20 8 0 6 7 6 18 1 9 -4 34 -7 54 -6 22 0 35 -3 31 -8 -3 -6 3 -6 14 0
10 6 25 7 32 3 7 -4 28 -7 47 -6 19 1 34 -2 34 -6 0 -4 6 -6 13 -6 41 4 138
-17 147 -31 6 -11 9 -12 10 -4 0 8 5 10 13 5 12 -8 32 -13 55 -15 6 -1 12 -5
12 -10 0 -5 5 -6 10 -3 6 3 10 1 10 -6 0 -7 3 -10 6 -6 7 6 81 -30 90 -44 3
-5 9 -7 14 -4 4 3 23 -10 41 -28 18 -17 27 -23 19 -12 -8 11 4 4 27 -15 23
-19 42 -41 42 -49 1 -8 4 -12 7 -8 4 3 22 -13 40 -36 19 -23 39 -48 44 -54 6
-7 8 -13 4 -13 -3 0 -1 -7 6 -15 7 -8 9 -15 4 -15 -4 0 1 -7 12 -15 10 -8 16
-15 12 -15 -4 0 1 -16 12 -36 12 -21 15 -33 8 -29 -7 4 -4 -1 6 -9 11 -9 14
-16 8 -16 -9 0 -7 -8 4 -25 9 -14 13 -25 9 -25 -4 0 -1 -8 6 -17 12 -15 12
-16 -1 -8 -12 6 -12 5 -3 -5 6 -7 9 -19 6 -26 -3 -8 1 -14 8 -14 11 0 11 -3
-1 -10 -8 -5 -10 -10 -5 -10 6 0 11 -9 12 -20 1 -13 -2 -18 -10 -13 -7 3 -3
-3 7 -15 14 -17 16 -22 5 -22 -11 0 -11 -2 1 -10 13 -9 13 -10 0 -10 -13 0
-13 -1 0 -10 13 -9 13 -10 0 -10 -13 0 -13 -1 0 -10 13 -9 13 -10 0 -10 -13 0
-13 -1 0 -10 11 -7 11 -10 2 -10 -10 0 -10 -5 -2 -20 8 -15 8 -20 -2 -20 -9 0
-9 -3 2 -10 8 -5 10 -10 4 -10 -5 0 -9 -13 -8 -30 1 -16 -2 -30 -7 -30 -4 0
-5 -7 -2 -17 5 -12 3 -14 -8 -8 -12 7 -12 6 -1 -7 9 -11 10 -18 2 -23 -6 -3
-8 -10 -5 -15 3 -5 1 -11 -5 -15 -6 -4 -8 -10 -5 -15 3 -5 1 -11 -5 -15 -6 -4
-8 -11 -5 -16 4 -5 2 -9 -4 -9 -5 0 -8 -9 -6 -20 2 -11 -1 -19 -8 -17 -7 1
-11 -4 -9 -10 1 -7 -2 -13 -8 -13 -6 0 -9 -6 -8 -12 2 -7 -3 -12 -10 -10 -6 1
-11 -1 -10 -5 3 -15 -22 -63 -32 -63 -6 0 -8 -5 -4 -12 5 -8 2 -9 -9 -5 -9 3
-16 3 -15 -1 4 -14 -23 -52 -38 -52 -8 0 -13 -4 -10 -9 6 -9 -22 -26 -36 -23
-5 1 -8 -5 -8 -13 0 -8 -7 -15 -15 -15 -8 0 -15 -5 -15 -11 0 -5 -4 -7 -10 -4
-5 3 -10 1 -10 -4 0 -6 -7 -11 -15 -11 -8 0 -15 -4 -15 -10 0 -5 -7 -10 -15
-10 -8 0 -15 -5 -15 -11 0 -5 -4 -8 -9 -4 -5 3 -17 -2 -25 -11 -12 -11 -16
-12 -16 -2 0 8 -3 9 -8 3 -11 -16 -50 -35 -71 -35 -11 0 -22 -4 -25 -9 -4 -5
-14 -8 -23 -7 -10 2 -24 -4 -32 -11 -11 -12 -15 -12 -22 -1 -5 7 -9 8 -9 3 0
-6 -11 -12 -25 -13 -14 -1 -36 -4 -50 -5 -14 -1 -25 -5 -25 -8 0 -3 -10 -6
-22 -6 -82 -1 -99 -4 -92 -15 4 -7 3 -8 -4 -4 -18 11 -52 16 -52 8 0 -4 -9 -8
-20 -8 -11 0 -20 3 -20 6 0 4 -7 7 -15 7 -8 0 -12 -4 -9 -9 6 -10 -4 -9 -31 1
-11 5 -25 4 -32 -1 -9 -7 -13 -6 -13 3 0 10 -3 10 -12 1 -15 -15 -31 -16 -22
0 5 7 3 8 -6 3 -20 -12 -60 -15 -60 -4 0 6 -6 7 -12 2 -17 -10 -40 -10 -55 0
-6 4 -14 4 -17 -1 -6 -9 -53 -8 -63 2 -3 3 -14 1 -24 -5 -13 -7 -19 -6 -19 1
0 6 -5 8 -12 3 -20 -12 -38 -12 -38 0 0 8 -3 8 -11 0 -8 -8 -20 -8 -36 -2 -16
6 -22 5 -18 -1 7 -12 -2 -12 -30 -1 -11 5 -25 4 -32 -1 -9 -7 -13 -6 -13 3 0
10 -3 10 -12 1 -15 -15 -31 -16 -22 0 5 7 3 8 -6 3 -20 -12 -60 -15 -60 -4 0
6 -6 7 -12 2 -17 -10 -40 -10 -55 0 -6 4 -14 4 -17 -1 -6 -9 -53 -8 -63 2 -3
3 -14 1 -24 -5 -13 -7 -19 -6 -19 1 0 6 -5 8 -12 3 -20 -12 -38 -12 -38 0 0 8
-3 8 -11 0 -8 -8 -20 -8 -36 -2 -16 6 -22 5 -18 -1 7 -12 -2 -12 -30 -1 -11 5
-25 4 -32 -1 -9 -7 -13 -6 -13 3 0 10 -3 10 -12 1 -15 -15 -31 -16 -22 0 5 7
3 8 -6 3 -20 -12 -60 -15 -60 -4 0 6 -6 7 -12 3 -18 -11 -48 -12 -54 -2 -3 4
-11 5 -17 1 -19 -11 -58 -13 -51 -1 4 5 -4 4 -17 -2 -17 -10 -24 -10 -27 -2
-3 9 -9 9 -23 2 -13 -7 -19 -7 -19 0 0 5 -5 10 -11 10 -5 0 -8 -4 -5 -8 3 -5
-1 -9 -9 -9 -8 0 -15 4 -15 9 0 5 -5 6 -11 2 -8 -5 -8 -1 0 14 8 15 8 23 0 28
-7 4 -7 10 -1 16 7 7 7 19 2 33 -5 14 -4 27 3 34 8 8 8 11 -1 11 -6 0 -9 7 -6
15 4 8 11 12 17 8 6 -4 7 -1 1 8 -5 8 -9 28 -10 46 -1 17 -4 39 -7 47 -3 8 -2
18 3 21 6 4 7 13 1 24 -6 10 -6 23 -1 31 5 9 5 19 -1 26 -7 8 -7 14 0 18 6 4
7 15 1 30 -5 15 -5 27 3 35 8 8 8 11 -1 11 -6 0 -9 7 -6 15 4 8 11 12 17 8 6
-4 7 -1 1 8 -5 8 -9 28 -10 46 -1 17 -4 39 -7 47 -3 8 -2 18 3 21 6 4 7 13 1
24 -6 10 -6 23 -1 31 5 9 5 19 -1 26 -7 8 -7 14 0 18 6 4 7 15 1 30 -5 15 -5
27 3 35 8 8 8 11 -1 11 -6 0 -9 7 -6 15 4 8 11 12 17 8 6 -4 7 -1 1 8 -5 8 -9
28 -10 46 -1 17 -4 39 -7 47 -3 8 -2 18 3 21 6 4 7 13 1 24 -6 10 -6 23 -1 31
5 9 5 19 -1 26 -7 8 -7 14 0 18 6 4 7 15 1 30 -5 15 -5 27 3 35 8 8 8 11 -1
11 -6 0 -9 7 -6 15 4 8 11 12 17 8 6 -4 7 -1 1 8 -5 8 -9 28 -10 46 -1 17 -4
39 -7 47 -3 8 -2 18 3 21 6 4 7 13 1 24 -6 10 -6 23 -1 31 5 9 5 19 -1 26 -7
8 -7 14 0 18 6 4 7 15 1 30 -5 15 -5 27 3 35 8 8 8 11 -1 11 -6 0 -9 7 -6 15
4 8 11 12 18 8 8 -5 8 -3 1 8 -6 8 -12 26 -14 41 -2 24 1 26 23 22 14 -2 26 0
26 6 0 5 5 10 10 10 6 0 10 -4 10 -10z m80 -1870 c0 5 13 5 30 0 17 -5 30 -5
30 -1 0 4 27 4 60 1 33 -3 60 -3 60 1 0 4 14 4 30 -1 17 -5 30 -5 30 0 0 5 13
5 30 0 19 -5 30 -5 30 1 0 6 8 5 20 -1 15 -8 20 -8 20 2 0 9 3 9 10 -2 6 -9
10 -10 10 -3 0 8 9 9 30 3 21 -6 30 -5 30 3 0 7 4 6 10 -3 6 -9 10 -10 10 -3
0 8 9 9 30 3 21 -6 30 -5 30 3 0 7 4 6 10 -3 6 -9 10 -10 10 -3 0 8 9 9 30 3
21 -6 30 -5 30 3 0 7 4 6 10 -3 6 -9 10 -10 10 -3 0 8 9 9 30 3 17 -5 30 -5
30 0 0 5 13 5 30 0 17 -5 30 -5 30 0 0 5 13 5 30 0 17 -5 30 -5 30 -1 0 4 27
4 60 1 33 -3 60 -3 60 1 0 4 14 4 30 -1 17 -5 30 -5 30 0 0 5 13 5 30 0 17 -5
30 -5 30 -1 0 4 27 4 60 1 33 -3 60 -3 60 1 0 4 14 4 30 -1 17 -5 30 -5 30 0
0 5 13 5 30 0 17 -5 30 -5 30 -1 0 4 21 5 48 1 26 -5 51 -6 55 -3 4 3 13 0 20
-6 8 -6 18 -6 27 -1 8 5 21 5 29 2 9 -4 32 -7 51 -7 19 0 41 -7 48 -15 10 -13
11 -13 6 2 -4 13 -1 15 15 11 11 -3 19 -8 17 -12 -3 -4 8 -6 22 -5 15 0 30 -4
34 -10 5 -8 8 -7 8 1 0 9 7 10 24 3 13 -5 27 -6 30 -3 3 4 6 1 6 -6 0 -7 4
-10 9 -6 5 3 13 0 17 -6 4 -8 9 -7 15 2 7 11 9 11 9 1 0 -7 5 -10 10 -7 6 3
10 1 10 -5 0 -6 6 -10 13 -9 26 3 48 -1 43 -9 -2 -4 7 -9 22 -10 14 -1 28 -6
31 -10 3 -4 13 -7 21 -7 8 0 18 -4 22 -10 4 -5 12 -11 18 -11 5 -1 15 -2 21
-3 5 0 7 -6 3 -13 -4 -6 -3 -8 4 -4 6 3 16 1 24 -6 7 -7 20 -14 28 -16 7 -2
21 -12 31 -23 9 -10 21 -19 27 -19 6 0 17 -8 24 -19 7 -10 17 -19 23 -19 5 0
12 -9 16 -19 4 -10 8 -14 8 -10 1 4 7 2 15 -5 8 -7 12 -16 10 -19 -2 -4 6 -9
17 -12 15 -4 20 -11 15 -22 -3 -9 -2 -13 4 -10 6 3 10 2 10 -3 0 -4 9 -18 20
-30 12 -12 18 -22 15 -22 -4 0 1 -7 9 -16 9 -8 16 -24 16 -35 0 -10 3 -19 8
-19 4 0 12 -11 19 -25 8 -19 8 -23 0 -19 -8 5 -7 2 1 -7 6 -7 12 -21 12 -32 0
-10 4 -16 8 -13 5 3 9 -1 9 -9 0 -8 -5 -11 -11 -8 -6 4 -5 0 1 -8 7 -9 14 -32
15 -52 2 -20 6 -37 9 -37 3 0 5 -25 5 -55 -1 -31 3 -55 9 -55 7 0 7 -3 0 -8
-5 -4 -10 -16 -10 -27 0 -11 5 -23 10 -27 6 -5 6 -8 -2 -8 -6 0 -9 -9 -6 -20
3 -11 -1 -28 -8 -37 -10 -12 -10 -14 -1 -9 15 9 15 1 1 -26 -8 -16 -8 -19 1
-13 9 6 9 2 1 -14 -7 -12 -9 -26 -6 -31 3 -6 3 -10 -2 -10 -4 0 -9 -11 -10
-25 -6 -58 -8 -65 -23 -66 -11 0 -11 -2 -2 -6 8 -3 10 -9 3 -16 -5 -7 -10 -15
-10 -19 -3 -19 -16 -44 -25 -50 -7 -5 -7 -8 2 -8 7 0 10 -5 7 -10 -4 -6 -11
-7 -17 -4 -6 4 -8 2 -4 -4 3 -6 -1 -17 -10 -26 -8 -9 -13 -20 -10 -25 3 -5 -1
-12 -10 -15 -9 -4 -14 -9 -11 -12 3 -3 -13 -25 -35 -48 -23 -22 -40 -42 -39
-44 1 -1 -13 -15 -31 -30 -18 -15 -38 -34 -45 -42 -7 -8 -13 -11 -13 -7 0 4
-10 -1 -22 -13 -12 -11 -34 -26 -50 -32 -15 -7 -28 -17 -28 -21 0 -5 -4 -5
-10 -2 -5 3 -10 1 -10 -5 0 -6 -4 -8 -10 -5 -5 3 -10 1 -10 -5 0 -6 -4 -8 -10
-5 -5 3 -10 1 -10 -5 0 -6 -3 -9 -8 -7 -4 3 -24 -3 -44 -13 -35 -17 -105 -35
-120 -32 -5 1 -8 -3 -8 -10 0 -6 -3 -8 -7 -5 -3 4 -13 1 -21 -6 -13 -10 -14
-9 -7 2 6 11 5 12 -6 5 -16 -10 -33 -14 -72 -16 -15 0 -30 -4 -32 -8 -3 -4
-28 -8 -57 -9 -59 -1 -92 -6 -110 -17 -7 -4 -8 -3 -4 4 7 12 -34 10 -66 -3
-11 -5 -18 -3 -18 5 0 10 -4 9 -16 -1 -13 -10 -17 -10 -25 2 -7 12 -9 12 -9
-1 0 -13 -1 -13 -10 0 -8 12 -10 12 -10 1 0 -11 -3 -11 -15 -1 -8 7 -15 8 -15
3 0 -5 -9 -9 -20 -10 -13 -1 -18 2 -13 10 4 7 -1 5 -12 -3 -21 -17 -24 -17
-36 2 -7 11 -9 11 -9 -1 0 -11 -3 -11 -15 -1 -8 7 -15 8 -15 3 0 -5 -9 -9 -20
-10 -13 -1 -18 2 -13 10 4 7 -1 5 -12 -3 -21 -17 -24 -17 -36 2 -7 11 -9 11
-9 -1 0 -11 -3 -11 -15 -1 -8 7 -15 8 -15 3 0 -5 -9 -9 -20 -10 -13 -1 -18 2
-13 10 4 7 -1 5 -12 -3 -21 -17 -24 -17 -36 2 -7 11 -9 11 -9 -1 0 -11 -3 -11
-15 -1 -8 7 -15 8 -15 3 0 -5 -9 -9 -20 -10 -13 -1 -18 2 -14 9 5 7 2 8 -7 2
-19 -12 -33 -12 -41 1 -5 6 -8 5 -8 -4 0 -11 -3 -11 -15 -1 -8 7 -15 8 -15 3
0 -5 -9 -9 -20 -10 -13 -1 -18 2 -14 9 5 7 2 8 -7 2 -21 -13 -39 -14 -39 -1 0
8 -3 7 -9 -1 -11 -17 -21 -17 -32 0 -7 11 -9 11 -9 -1 0 -11 -3 -11 -15 -1 -8
7 -15 8 -15 3 0 -5 -9 -9 -20 -10 -13 -1 -18 2 -14 9 5 7 2 8 -7 2 -19 -12
-33 -12 -41 1 -5 6 -8 5 -8 -4 0 -11 -3 -11 -15 -1 -8 7 -15 8 -15 3 0 -5 -9
-9 -20 -10 -13 -1 -18 2 -14 9 5 7 2 8 -7 2 -19 -12 -33 -12 -41 1 -5 6 -8 5
-8 -4 0 -11 -3 -11 -15 -1 -8 7 -15 8 -15 3 0 -5 -9 -9 -20 -10 -13 -1 -18 2
-14 9 5 7 2 8 -7 2 -19 -12 -33 -12 -41 1 -5 6 -8 5 -8 -4 0 -11 -3 -11 -15
-1 -8 7 -15 8 -15 3 0 -5 -9 -9 -20 -10 -13 -1 -18 2 -14 9 5 7 2 8 -7 2 -19
-12 -33 -12 -41 1 -5 6 -8 5 -8 -4 0 -11 -3 -11 -15 -1 -8 7 -15 8 -15 3 0 -5
-9 -9 -20 -10 -13 -1 -18 2 -14 9 5 7 2 8 -7 2 -21 -13 -39 -14 -39 -1 0 8 -3
7 -9 -1 -4 -8 -12 -14 -16 -14 -4 0 -12 6 -16 14 -7 11 -9 11 -9 -1 0 -11 -3
-11 -15 -1 -8 7 -15 8 -15 3 0 -5 -9 -9 -20 -10 -13 -1 -18 2 -14 9 5 7 2 8
-7 3 -26 -17 -50 -13 -44 6 3 9 0 21 -6 25 -9 5 -7 11 6 21 17 11 17 13 2 13
-13 0 -15 5 -7 25 6 16 6 26 -1 31 -6 4 -6 11 2 21 10 12 10 16 -2 24 -8 5 -9
9 -3 9 11 0 11 40 1 57 -3 5 -2 15 3 23 4 7 4 24 0 36 -6 14 -5 26 0 29 6 4 7
13 1 24 -5 9 -6 23 -1 31 4 7 4 24 0 36 -6 14 -5 26 0 29 6 4 10 11 10 16 0 6
-5 7 -12 3 -7 -4 -8 -3 -4 5 4 6 9 23 12 37 3 19 1 24 -8 18 -10 -6 -10 -5 0
8 9 12 10 18 2 23 -8 5 -6 13 6 26 17 19 17 20 0 13 -16 -6 -17 -4 -7 14 14
26 14 35 1 27 -6 -4 -7 2 -1 17 5 13 5 33 0 45 -5 13 -4 25 1 28 6 4 7 13 1
24 -6 10 -6 23 -1 31 5 9 5 19 -1 26 -7 8 -7 14 0 18 6 4 7 15 1 30 -5 15 -5
27 3 35 8 8 8 11 -1 11 -6 0 -9 7 -6 15 4 8 11 12 17 8 6 -4 7 -1 1 8 -5 8 -9
28 -10 46 -1 17 -4 39 -7 47 -3 8 -2 18 3 21 6 4 7 13 1 24 -6 10 -6 23 -1 31
5 9 5 19 -1 26 -7 8 -7 14 0 18 6 4 7 15 1 30 -5 15 -5 27 3 35 8 8 8 11 -1
11 -6 0 -9 7 -6 15 4 8 11 12 17 8 6 -4 7 -1 1 8 -5 8 -9 28 -10 46 -1 17 -4
39 -7 47 -3 8 -2 18 3 21 6 4 7 13 1 24 -6 10 -6 23 -1 31 5 9 5 19 -1 26 -7
8 -7 14 0 18 6 4 7 15 1 30 -5 15 -5 27 3 35 8 8 8 11 -1 11 -6 0 -9 7 -6 15
4 8 11 12 17 8 6 -4 7 -1 1 8 -5 8 -10 25 -10 39 -1 14 -3 25 -4 25 -1 0 -3
10 -4 22 -1 12 1 20 6 17 4 -3 8 0 8 6 0 8 14 11 40 8 22 -2 40 0 40 4 0 3 14
3 30 -2 17 -5 30 -5 30 0z"/>
</g>
</svg>
